<svg xmlns="http://www.w3.org/2000/svg" width="980" height="240" viewBox="0 0 980 240">
  <rect width="980" height="240" fill="#f8fafc"/>
  <style>.box{fill:#fff;stroke:#cbd5e1;stroke-width:2}.txt{font-family:Arial,sans-serif;font-size:16px;fill:#0f172a;font-weight:700}.sub{font-family:Arial,sans-serif;font-size:12px;fill:#475569}.arrow{stroke:#2563eb;stroke-width:3;marker-end:url(#m)}</style>
  <defs><marker id="m" markerWidth="10" markerHeight="10" refX="8" refY="3" orient="auto"><path d="M0,0 L0,6 L9,3 z" fill="#2563eb"/></marker></defs>
  <rect class="box" x="30" y="70" width="130" height="80" rx="14"/><text class="txt" x="70" y="105">Run</text><text class="sub" x="52" y="128">Docker lab</text>
  <line class="arrow" x1="165" y1="110" x2="220" y2="110"/>
  <rect class="box" x="230" y="70" width="130" height="80" rx="14"/><text class="txt" x="270" y="105">Explore</text><text class="sub" x="253" y="128">Use web app</text>
  <line class="arrow" x1="365" y1="110" x2="420" y2="110"/>
  <rect class="box" x="430" y="70" width="130" height="80" rx="14"/><text class="txt" x="465" y="105">Challenge</text><text class="sub" x="452" y="128">Find behavior</text>
  <line class="arrow" x1="565" y1="110" x2="620" y2="110"/>
  <rect class="box" x="630" y="70" width="130" height="80" rx="14"/><text class="txt" x="665" y="105">Evidence</text><text class="sub" x="654" y="128">Record proof</text>
  <line class="arrow" x1="765" y1="110" x2="820" y2="110"/>
  <rect class="box" x="830" y="70" width="120" height="80" rx="14"/><text class="txt" x="861" y="105">Report</text><text class="sub" x="849" y="128">Markdown</text>
</svg>
